<svg xmlns="http://www.w3.org/2000/svg" width="512" height="512" viewBox="0 0 512 512">
  <defs>
    <linearGradient id="g" x1="0" y1="0" x2="1" y2="1">
      <stop offset="0" stop-color="#f5b301"/>
      <stop offset="0.55" stop-color="#ef7d00"/>
      <stop offset="1" stop-color="#d8472b"/>
    </linearGradient>
  </defs>
  <rect width="512" height="512" rx="112" fill="url(#g)"/>
  <!-- sole -->
  <g fill="#fff7e8">
    <circle cx="256" cy="232" r="78"/>
    <g stroke="#fff7e8" stroke-width="16" stroke-linecap="round">
      <line x1="256" y1="92" x2="256" y2="124"/>
      <line x1="256" y1="340" x2="256" y2="372"/>
      <line x1="116" y1="232" x2="148" y2="232"/>
      <line x1="364" y1="232" x2="396" y2="232"/>
      <line x1="157" y1="133" x2="180" y2="156"/>
      <line x1="332" y1="308" x2="355" y2="331"/>
      <line x1="355" y1="133" x2="332" y2="156"/>
      <line x1="180" y1="308" x2="157" y2="331"/>
    </g>
  </g>
  <!-- pin -->
  <path d="M256 300c-44 0-80 35-80 79 0 53 80 121 80 121s80-68 80-121c0-44-36-79-80-79z" fill="#b02e6b"/>
  <circle cx="256" cy="380" r="30" fill="#fff7e8"/>
</svg>
